<svg width="1623" height="69" viewBox="0 0 1623 69" fill="none" xmlns="http://www.w3.org/2000/svg">
<path d="M19.3547 -1H1629.58L1580.12 69H19.3547V-1Z" fill="white"/>
<path d="M19.3547 -1H1629.58L1580.12 69H19.3547V-1Z" fill="#333333" fill-opacity="0.1"/>
<path d="M7 -1H474.452C478.486 -1 480.503 -1 481.305 0.317504C482.108 1.63501 481.182 3.42702 479.33 7.01105L449.147 65.4411C448.4 66.8876 448.027 67.6108 447.369 68.0114C446.711 68.412 445.897 68.412 444.269 68.412H10.6378C9.64939 68.398 8.71593 68.09 8.04328 67.572C7.35691 67.04 6.98627 66.34 7.01373 65.598V-0.986273C7.01373 -0.993855 7.00758 -1 7 -1Z" fill="#37A3A3"/>
</svg>