<?xml version="1.0" encoding="UTF-8"?>
<svg id="Capa_1" xmlns="http://www.w3.org/2000/svg" xmlns:xlink="http://www.w3.org/1999/xlink" viewBox="0 0 910.02 355.64">
  <defs>
    <style>
      .cls-1 {
        fill: url(#linear-gradient);
      }

      .cls-1, .cls-2, .cls-3, .cls-4, .cls-5, .cls-6, .cls-7, .cls-8 {
        stroke-width: 0px;
      }

      .cls-2 {
        fill: url(#linear-gradient-6);
      }

      .cls-3 {
        fill: url(#linear-gradient-5);
      }

      .cls-4 {
        fill: #fff;
      }

      .cls-5 {
        fill: url(#linear-gradient-2);
      }

      .cls-6 {
        fill: url(#linear-gradient-3);
      }

      .cls-7 {
        fill: url(#linear-gradient-4);
      }

      .cls-8 {
        fill: #575756;
      }
    </style>
    <linearGradient id="linear-gradient" x1="128.33" y1="119.99" x2="241.62" y2="119.99" gradientUnits="userSpaceOnUse">
      <stop offset="0" stop-color="#d51224" />
      <stop offset=".13" stop-color="#d61d21" />
      <stop offset=".35" stop-color="#dc3b1a" />
      <stop offset=".65" stop-color="#e46c0f" />
      <stop offset="1" stop-color="#f0ae00" />
    </linearGradient>
    <linearGradient id="linear-gradient-2" x1="128.33" y1="216.2" x2="268.09" y2="216.2" gradientUnits="userSpaceOnUse">
      <stop offset="0" stop-color="#00718b" stop-opacity=".5" />
      <stop offset="1" stop-color="#78c7c9" stop-opacity=".5" />
    </linearGradient>
    <linearGradient id="linear-gradient-3" x1="63.08" y1="194.49" x2="176.37" y2="194.49" gradientUnits="userSpaceOnUse">
      <stop offset="0" stop-color="#78c7c9" />
      <stop offset="1" stop-color="#00718b" />
    </linearGradient>
    <linearGradient id="linear-gradient-4" x1="241.62" y1="235.14" x2="328.65" y2="235.14" xlink:href="#linear-gradient-3" />
    <linearGradient id="linear-gradient-5" x1="111.11" y1="141.69" x2="197.42" y2="141.69" gradientUnits="userSpaceOnUse">
      <stop offset="0" stop-color="#f0ae00" stop-opacity=".4" />
      <stop offset=".08" stop-color="#ed9f03" stop-opacity=".4" />
      <stop offset=".69" stop-color="#db391a" stop-opacity=".4" />
      <stop offset="1" stop-color="#d51224" stop-opacity=".4" />
    </linearGradient>
    <linearGradient id="linear-gradient-6" x1="24.08" y1="245.94" x2="111.11" y2="245.94" gradientUnits="userSpaceOnUse">
      <stop offset="0" stop-color="#78c7c9" stop-opacity=".5" />
      <stop offset=".91" stop-color="#0b7991" stop-opacity=".5" />
      <stop offset="1" stop-color="#00718b" stop-opacity=".5" />
    </linearGradient>
  </defs>
  <g>
    <path class="cls-8" d="m390.69,166.37h-6.88l-5.73-14.63h-20.83l-5.65,14.63h-6.87l19.75-50.51h6.45l19.76,50.51Zm-14.92-20.7l-8.11-20.55-8.02,20.55h16.13Z" />
    <path class="cls-8" d="m434.09,166.37h-6l-23.07-37.85v37.85h-6.37v-50.51h6l23.16,37.84v-37.84h6.29v50.51Z" />
    <path class="cls-8" d="m479.97,122.08h-15.41v44.29h-6.37v-44.29h-15.41v-6.23h37.19v6.23Z" />
    <path class="cls-8" d="m525.48,145.17c0,14.57-6.21,21.86-18.6,21.86s-18.6-7.29-18.6-21.86v-29.31h6.36v29.31c0,5,.75,8.69,2.25,11.07,1.88,3.08,5.21,4.62,9.99,4.62s8.12-1.54,10.05-4.62c1.46-2.37,2.17-6.06,2.17-11.07v-29.31h6.38v29.31Z" />
    <path class="cls-8" d="m572.66,124.33l-4.93,3.98c-1.97-2.36-3.66-3.99-5.07-4.92-1.87-1.26-4.09-1.89-6.65-1.89-9.35,0-14.04,6.54-14.04,19.61s4.7,19.62,14.04,19.62c2.56,0,4.77-.64,6.65-1.89,1.41-.91,3.1-2.55,5.07-4.91l4.86,3.98c-2.6,3.13-4.99,5.35-7.17,6.65-2.7,1.64-5.84,2.47-9.41,2.47-7.14,0-12.59-2.9-16.34-8.7-2.7-4.09-4.06-9.82-4.06-17.22s1.36-13.17,4.06-17.22c3.75-5.79,9.2-8.69,16.34-8.69,3.58,0,6.71.81,9.41,2.46,2.17,1.3,4.58,3.53,7.24,6.67Z" />
    <path class="cls-8" d="m621.93,141.11c0,7.44-1.34,13.17-4.05,17.22-3.81,5.79-9.28,8.7-16.42,8.7s-12.61-2.9-16.42-8.7c-2.69-4.04-4.05-9.78-4.05-17.22s1.36-13.17,4.05-17.22c3.86-5.79,9.34-8.69,16.42-8.69s12.62,2.9,16.42,8.69c2.71,4.04,4.05,9.8,4.05,17.22Zm-6.36,0c0-6.22-1.02-10.83-3.04-13.81-2.56-3.86-6.24-5.79-11.07-5.79s-8.5,1.93-11.07,5.79c-2.03,2.98-3.04,7.59-3.04,13.81s1.01,10.8,3.04,13.82c2.57,3.86,6.24,5.8,11.07,5.8s8.51-1.94,11.07-5.8c2.02-3.03,3.04-7.64,3.04-13.82Z" />
    <path class="cls-8" d="m668.52,115.86l-16.71,33.72v16.79h-6.29v-16.94l-16.72-33.58h7.09l12.8,25.76,12.72-25.76h7.09Z" />
    <path class="cls-8" d="m718.81,166.37h-6.87l-5.71-14.63h-20.85l-5.65,14.63h-6.87l19.75-50.51h6.45l19.75,50.51Zm-14.9-20.7l-8.1-20.55-8.04,20.55h16.14Z" />
  </g>
  <rect class="cls-8" x="349.33" y="182.93" width="534.66" height="3.06" />
  <g>
    <path class="cls-8" d="m375.87,234.1h-4.12l-3.41-8.75h-12.46l-3.4,8.75h-4.1l11.81-30.22h3.86l11.83,30.22Zm-8.92-12.38l-4.86-12.29-4.8,12.29h9.65Z" />
    <path class="cls-8" d="m402.92,234.1h-3.58l-13.81-22.63v22.63h-3.82v-30.22h3.6l13.86,22.65v-22.65h3.76v30.22Z" />
    <path class="cls-8" d="m431.43,207.6h-9.23v26.49h-3.82v-26.49h-9.2v-3.73h22.25v3.73Z" />
    <path class="cls-8" d="m459.73,218.98c0,4.47-.81,7.89-2.42,10.31-2.28,3.47-5.56,5.21-9.82,5.21s-7.56-1.74-9.84-5.21c-1.61-2.42-2.41-5.84-2.41-10.31s.8-7.87,2.41-10.31c2.31-3.46,5.6-5.18,9.84-5.18s7.54,1.72,9.82,5.18c1.62,2.44,2.42,5.87,2.42,10.31Zm-3.81,0c0-3.72-.6-6.47-1.81-8.26-1.53-2.31-3.75-3.47-6.62-3.47s-5.09,1.15-6.64,3.47c-1.21,1.79-1.82,4.54-1.82,8.26s.61,6.47,1.82,8.27c1.55,2.32,3.75,3.46,6.64,3.46s5.08-1.14,6.62-3.46c1.21-1.81,1.81-4.57,1.81-8.27Z" />
    <path class="cls-8" d="m485.45,207.6h-15.47v9.13h13.86v3.51h-13.86v13.85h-3.76v-30.22h19.23v3.73Z" />
    <path class="cls-8" d="m514.32,234.1h-4.11l-3.43-8.75h-12.47l-3.38,8.75h-4.09l11.81-30.22h3.84l11.82,30.22Zm-8.91-12.38l-4.85-12.29-4.82,12.29h9.66Z" />
    <path class="cls-8" d="m540.77,217.65l-.04,16.45h-3.42v-3.11c-.84,1.33-1.86,2.27-3.07,2.82-1.08.47-2.46.69-4.16.69-4.15,0-7.28-1.62-9.38-4.86-1.78-2.74-2.66-6.29-2.66-10.65s.9-7.97,2.7-10.68c2.13-3.2,5.29-4.8,9.5-4.8,2.15,0,4.02.49,5.64,1.47,1.34.8,2.8,2.13,4.32,3.98l-2.89,2.39c-1.14-1.4-2.16-2.37-3.03-2.96-1.15-.74-2.49-1.11-4.04-1.11-5.59,0-8.38,3.92-8.38,11.72s2.74,11.73,8.22,11.73c2.46,0,4.26-1,5.41-3.03.95-1.61,1.44-3.74,1.44-6.41h-7.51v-3.63h11.35Z" />
    <path class="cls-8" d="m573.67,234.1h-4.1l-3.42-8.75h-12.47l-3.39,8.75h-4.1l11.81-30.22h3.86l11.81,30.22Zm-8.91-12.38l-4.86-12.29-4.8,12.29h9.66Z" />
    <path class="cls-8" d="m601.12,225.31c0,2.82-1.13,5.11-3.37,6.85-2.06,1.55-4.54,2.34-7.49,2.34-6.91,0-10.9-3.15-11.99-9.41l3.75-.65c.41,2.28,1.31,3.93,2.73,4.94,1.27.89,3.12,1.34,5.51,1.34,1.87,0,3.46-.42,4.75-1.25,1.53-1.01,2.3-2.4,2.3-4.15,0-2.19-1.55-3.78-4.64-4.76-2.85-.82-5.69-1.63-8.58-2.48-3.09-1.33-4.63-3.53-4.63-6.61,0-2.61,1.03-4.62,3.11-6.03,1.82-1.23,4.08-1.87,6.8-1.87s5.01.53,6.71,1.59c1.71,1.05,3.16,2.8,4.34,5.27l-3.46,1.59c-.88-1.79-1.85-3.02-2.91-3.69-1.08-.66-2.62-.99-4.68-.99-4.07,0-6.1,1.36-6.1,4.12,0,1.76,1.54,3.08,4.64,3.97,5.34,1.55,8.18,2.44,8.58,2.64,3.08,1.53,4.62,3.94,4.62,7.24Z" />
    <path class="cls-8" d="m627.14,207.6h-9.22v26.49h-3.81v-26.49h-9.23v-3.73h22.26v3.73Z" />
    <path class="cls-8" d="m654.68,234.1h-4.11l-3.43-8.75h-12.45l-3.39,8.75h-4.11l11.82-30.22h3.86l11.82,30.22Zm-8.93-12.38l-4.84-12.29-4.81,12.29h9.65Z" />
    <path class="cls-8" d="m700.3,234.1h-3.81v-19.48l-7.26,19.48h-3.32l-7.24-19.35v19.35h-3.81v-30.22h3.16l9.58,24.54,9.13-24.54h3.59v30.22Z" />
    <path class="cls-8" d="m713.21,234.1h-3.93v-30.22h3.93v30.22Z" />
    <path class="cls-8" d="m743.3,234.1h-3.6l-13.82-22.63v22.63h-3.81v-30.22h3.6l13.85,22.65v-22.65h3.77v30.22Z" />
    <path class="cls-8" d="m771.61,234.1h-19.66v-30.22h19.66v3.73h-15.88v9.17h13.89v3.48h-13.89v10.14h15.88v3.72Z" />
    <path class="cls-8" d="m800.88,234.1h-4.25l-6.49-11.13c-.83-1.4-1.91-2.11-3.24-2.11h-3.95v13.24h-3.72v-30.22h10.52c2.99,0,5.37.65,7.1,1.95,1.93,1.46,2.9,3.64,2.9,6.53,0,2.11-.63,3.96-1.87,5.54-1.27,1.6-2.93,2.56-5,2.92.2.23.47.59.81,1.08l7.19,12.2Zm-4.86-21.74c0-3.2-2.09-4.8-6.28-4.8h-6.8v10.04h6.94c4.09,0,6.14-1.74,6.14-5.24Z" />
    <path class="cls-8" d="m832.48,234.1h-4.13l-3.41-8.75h-12.47l-3.37,8.75h-4.12l11.83-30.22h3.85l11.82,30.22Zm-8.92-12.38l-4.85-12.29-4.81,12.29h9.66Z" />
    <path class="cls-8" d="m856.29,234.1h-17.88v-30.22h3.76v26.5h14.12v3.72Z" />
    <path class="cls-8" d="m883.92,225.31c0,2.82-1.13,5.11-3.38,6.85-2.03,1.55-4.53,2.34-7.5,2.34-6.89,0-10.88-3.15-11.99-9.41l3.77-.65c.4,2.28,1.31,3.93,2.73,4.94,1.26.89,3.11,1.34,5.49,1.34,1.89,0,3.47-.42,4.78-1.25,1.52-1.01,2.28-2.4,2.28-4.15,0-2.19-1.55-3.78-4.62-4.76-2.88-.82-5.72-1.63-8.58-2.48-3.09-1.33-4.64-3.53-4.64-6.61,0-2.61,1.06-4.62,3.13-6.03,1.83-1.23,4.08-1.87,6.8-1.87s5,.53,6.7,1.59c1.7,1.05,3.14,2.8,4.33,5.27l-3.47,1.59c-.86-1.79-1.84-3.02-2.89-3.69-1.07-.66-2.64-.99-4.67-.99-4.07,0-6.12,1.36-6.12,4.12,0,1.76,1.55,3.08,4.63,3.97,5.35,1.55,8.21,2.44,8.59,2.64,3.08,1.53,4.62,3.94,4.62,7.24Z" />
  </g>
  <g>
    <path class="cls-4" d="m324.73,258.58h0s-56.63-81.02-56.63-81.02l-26.47-37.87-47.51-67.95h0c-3.89-5.6-10.35-9.27-17.68-9.33h-.14c-7.33.05-13.79,3.73-17.68,9.33h0l-30.29,43.32h0l-17.21,24.63h0l-48.04,68.71-35.07,50.17h0c-6.87,9.82-4.48,23.35,5.35,30.22,9.81,6.87,23.34,4.47,30.21-5.35h0s47.54-68.01,47.54-68.01l17.22,24.63,30.29,43.32h0c3.89,5.6,10.35,9.28,17.68,9.33h.14c7.33-.05,13.78-3.73,17.68-9.33h0l47.51-67.95,47.55,68.01s0,0,0,0c6.86,9.82,20.39,12.22,30.21,5.35,9.82-6.86,12.22-20.39,5.35-30.21Zm-147.93-26.17l-.44.63h0s-38.78-55.47-38.78-55.47l38.78-55.48h0l.44.63,38.34,54.85-38.34,54.84Z" />
    <g>
      <path class="cls-1" d="m149.77,105.82c10.19,0,19.14,5.21,24.41,13.08.73,1.1,2.18,3.19,2.18,3.19l.44.63,38.34,54.85,26.47-37.87-47.51-67.95h0c-3.89-5.6-10.35-9.27-17.68-9.33h-.14c-7.33.05-13.79,3.73-17.68,9.33h0l-30.29,43.32h0c5.36-5.68,13.02-9.25,21.44-9.25Z" />
      <path class="cls-5" d="m149.77,249.3c10.19,0,19.14-5.2,24.41-13.08.73-1.1,2.18-3.18,2.18-3.18l.44-.63,64.82-92.71,26.47,37.87-73.98,105.81h0c-3.89,5.6-10.35,9.28-17.68,9.33h-.14c-7.33-.05-13.79-3.73-17.68-9.33h0l-30.29-43.32h0c5.36,5.69,13.02,9.24,21.44,9.24Z" />
      <path class="cls-6" d="m128.33,240.05h0c5.36,5.69,13.02,9.24,21.44,9.24,10.19,0,19.14-5.2,24.41-13.08.73-1.1,2.18-3.18,2.18-3.18h0s-47.5-67.95-47.5-67.95h0l-17.75-25.39-48.04,68.71c5.36-5.68,13.02-9.24,21.44-9.24,9.43,0,17.79,4.45,23.16,11.35l3.44,4.92,17.22,24.63h0Z" />
      <path class="cls-7" d="m324.73,258.58h0s-56.63-81.02-56.63-81.02l-26.47,37.86,47.55,68.01h0s0,0,0,0c6.86,9.82,20.39,12.22,30.21,5.35,9.82-6.86,12.22-20.39,5.35-30.21Z" />
      <path class="cls-3" d="m176.37,122.09h0s-1.45-2.08-2.18-3.19c-5.27-7.88-14.22-13.08-24.41-13.08-8.42,0-16.08,3.56-21.44,9.25h0l-17.21,24.63,26.47,37.87,38.78-55.48Z" />
      <path class="cls-2" d="m84.52,199.16c-8.42,0-16.09,3.56-21.44,9.24h0l-35.07,50.17h0c-6.87,9.82-4.48,23.35,5.35,30.22,9.81,6.87,23.34,4.47,30.21-5.35h0s47.54-68.01,47.54-68.01l-3.44-4.92c-5.36-6.9-13.73-11.35-23.16-11.35Z" />
    </g>
  </g>
</svg>