<svg width="1202" height="773" viewBox="0 0 1202 773" fill="none" xmlns="http://www.w3.org/2000/svg">
<rect x="1" y="1" width="1200" height="771.429" fill="white"/>
<rect x="1" y="1" width="1200" height="771.429" stroke="#5BC7C7" stroke-linecap="round"/>
<path d="M1 1H198V21C198 29.8366 190.837 37 182 37H1V1Z" fill="#37A3A3"/>
<path d="M31.682 24L30.993 22.388H27.236L26.534 24H24.935L28.315 16.564H29.94L33.307 24H31.682ZM27.782 21.14H30.46L29.121 18.046L27.782 21.14ZM41.7963 22.427V20.217H43.3433V23.181C42.5763 23.779 41.4583 24.13 40.3793 24.13C37.9613 24.13 36.2323 22.492 36.2323 20.282C36.2323 18.072 37.9743 16.447 40.3403 16.447C41.7183 16.447 42.7583 16.85 43.4603 17.695L42.3943 18.722C41.8483 18.111 41.1723 17.838 40.3663 17.838C38.9233 17.838 37.8833 18.852 37.8833 20.282C37.8833 21.712 38.9233 22.739 40.4183 22.739C40.9253 22.739 41.3803 22.635 41.7963 22.427ZM51.2896 24.13C49.1576 24.13 47.8966 22.882 47.8966 20.815V16.564H49.5346V20.763C49.5346 22.05 50.1586 22.739 51.3026 22.739C52.4336 22.739 53.0446 22.063 53.0446 20.763V16.564H54.6566V20.815C54.6566 22.882 53.4216 24.13 51.2896 24.13ZM64.8091 24L64.1201 22.388H60.3631L59.6611 24H58.0621L61.4421 16.564H63.0671L66.4341 24H64.8091ZM60.9091 21.14H63.5871L62.2481 18.046L60.9091 21.14ZM77.9282 22.687H82.0622V24H76.2902V16.564H81.9192V17.89H77.9282V19.593H81.4772V20.867H77.9282V22.687ZM91.581 16.564H93.206V24H91.854L87.993 19.32V24H86.355V16.564H87.72L91.581 21.257V16.564ZM112.687 24H111.127L111.114 19.424L108.839 23.168H108.098L105.823 19.541V24H104.263V16.564H105.667L108.488 21.218L111.27 16.564H112.674L112.687 24ZM117.552 24V16.564H119.19V24H117.552ZM129.276 16.564H130.901V24H129.549L125.688 19.32V24H124.05V16.564H125.415L129.276 21.257V16.564ZM137.403 22.687H141.537V24H135.765V16.564H141.394V17.89H137.403V19.593H140.952V20.867H137.403V22.687ZM152.434 24H150.666L149.171 21.894H149.041H147.468V24H145.83V16.564H149.041C151.03 16.564 152.291 17.552 152.291 19.242C152.291 20.36 151.719 21.179 150.731 21.595L152.434 24ZM150.64 19.242C150.64 18.371 150.055 17.89 148.924 17.89H147.468V20.607H148.924C150.055 20.607 150.64 20.113 150.64 19.242ZM162.258 24L161.569 22.388H157.812L157.11 24H155.511L158.891 16.564H160.516L163.883 24H162.258ZM158.358 21.14H161.036L159.697 18.046L158.358 21.14ZM167.547 24V16.564H169.185V22.674H173.007V24H167.547Z" fill="white"/>
</svg>
