<svg width="62" height="59" viewBox="0 0 62 59" fill="none" xmlns="http://www.w3.org/2000/svg">
<mask id="path-1-inside-1_2041_5099" fill="white">
<path d="M0 0H61.5976V58.4211H0V0Z"/>
</mask>
<path d="M61.5976 57.4211H0V59.4211H61.5976V57.4211Z" fill="white" mask="url(#path-1-inside-1_2041_5099)"/>
<path d="M61.5976 57.4211H0V59.4211H61.5976V57.4211Z" fill="#333333" fill-opacity="0.1" mask="url(#path-1-inside-1_2041_5099)"/>
<path d="M30.8019 8H30.7954C30.0141 8 29.3248 8.40048 28.9046 8.99791L25.668 13.6264C26.2391 13.0224 27.0598 12.6416 27.9592 12.6416C29.049 12.6416 30.0076 13.1996 30.5656 14.04C30.6444 14.1581 30.8019 14.3814 30.8019 14.3814L30.8479 14.447L34.9446 20.3097L37.7742 16.2656L32.6993 9.00447C32.2857 8.40704 31.5898 8.01313 30.8085 8.00657L30.8019 8Z" fill="#CD232C"/>
<path d="M30.8479 26.1593L30.8019 26.225C30.8019 26.225 30.6444 26.4482 30.5656 26.5663C30.001 27.4067 29.049 27.9647 27.9592 27.9647C27.0598 27.9647 26.2391 27.5839 25.668 26.9734L28.9046 31.6018C29.3248 32.1993 30.0076 32.5932 30.7954 32.5998H30.8085C31.5898 32.5998 32.2791 32.1993 32.6993 31.6018L40.6038 20.2966L37.7742 16.2524L30.8479 26.1593Z" fill="#6CC3C4"/>
<path d="M18.6953 23.5923C19.2665 22.9883 20.0871 22.6075 20.9866 22.6075C21.9976 22.6075 22.8905 23.0802 23.4616 23.8221L23.8293 24.3473L25.6675 26.98C26.2387 27.5839 27.0593 27.9647 27.9588 27.9647C29.0486 27.9647 30.0071 27.4067 30.5652 26.5663C30.644 26.4482 30.8015 26.225 30.8015 26.225L25.7266 18.9639L23.8293 16.2524L18.6953 23.5923Z" fill="#017D93"/>
<path d="M37.7741 24.3472L42.8556 31.6148C43.5909 32.6652 45.0353 32.9213 46.0791 32.186C47.1296 31.4507 47.3856 30.0063 46.6503 28.9625L40.5972 20.3096L37.7676 24.3537L37.7741 24.3472Z" fill="#017D93"/>
<path d="M25.6683 13.6198L23.8301 16.2524L26.6597 20.2966L30.8023 14.3682C30.8023 14.3682 30.6447 14.145 30.566 14.0268C30.0014 13.1865 29.0494 12.6284 27.9596 12.6284C27.0601 12.6284 26.2395 13.0092 25.6683 13.6198Z" fill="#EAAB00"/>
<path d="M18.6957 23.5921L14.947 28.9493C14.2117 29.9998 14.4678 31.4441 15.5182 32.1728C16.5686 32.9081 18.013 32.6521 18.7483 31.6017L23.8297 24.334L23.4621 23.8088C22.8909 23.0735 21.998 22.5942 20.987 22.5942C20.0875 22.5942 19.2669 22.975 18.6957 23.579" fill="#6CC3C4"/>
<path d="M11.1098 42.3329H10.6109L10.0791 40.9476H8.03074L7.49239 42.3329H7L8.80543 37.665H9.31096L11.1164 42.3329H11.1098ZM9.90837 40.5012L9.05491 38.2953L8.20144 40.5012H9.91494H9.90837Z" fill="#878787"/>
<path d="M15.3571 42.3329H14.8976L12.6129 38.4923V42.3329H12.1533V37.665H12.6129L14.8976 41.5057V37.665H15.3571V42.3329Z" fill="#878787"/>
<path d="M19.8289 38.1244H18.378V42.3392H17.9119V38.1244H16.4609V37.6714H19.8289V38.1244Z" fill="#878787"/>
<path d="M24.2472 40.0022C24.2472 40.685 24.1158 41.2299 23.8467 41.6501C23.525 42.1491 23.0392 42.3985 22.3892 42.3985C21.7393 42.3985 21.2534 42.1491 20.9317 41.6501C20.6625 41.2365 20.5312 40.685 20.5312 40.0022C20.5312 39.3195 20.6625 38.7746 20.9317 38.3544C21.2534 37.8554 21.7393 37.606 22.3892 37.606C23.0392 37.606 23.525 37.8554 23.8467 38.3544C24.1158 38.768 24.2472 39.3195 24.2472 40.0022ZM23.7876 40.0022C23.7876 38.7155 23.3215 38.0721 22.3892 38.0721C21.457 38.0721 20.9974 38.7155 20.9974 40.0022C20.9974 41.289 21.4635 41.9324 22.3892 41.9324C23.3149 41.9324 23.7876 41.289 23.7876 40.0022Z" fill="#878787"/>
<path d="M28.2846 38.1312H25.8424V39.6871H28.0351V40.1335H25.8424V42.3329H25.3828V37.665H28.2846V38.1246V38.1312Z" fill="#878787"/>
<path d="M32.7424 42.3329H32.2434L31.7116 40.9476H29.6633L29.1184 42.3329H28.626L30.4314 37.665H30.9369L32.7424 42.3329ZM31.5343 40.5012L30.6809 38.2953L29.8274 40.5012H31.5409H31.5343Z" fill="#878787"/>
<path d="M36.8784 42.3329H36.4188V41.7945C36.189 42.195 35.8082 42.3985 35.2699 42.3985C34.6265 42.3985 34.1472 42.1491 33.8321 41.6501C33.5629 41.2365 33.4316 40.685 33.4316 40.0022C33.4316 39.3195 33.5695 38.768 33.8387 38.3478C34.1604 37.8554 34.6462 37.606 35.3027 37.606C35.6178 37.606 35.8936 37.6782 36.1299 37.816C36.3269 37.9342 36.5369 38.1246 36.7733 38.4003L36.4188 38.6958C36.2284 38.4791 36.0708 38.3281 35.933 38.2428C35.7623 38.1312 35.5522 38.0787 35.3027 38.0787C34.3639 38.0787 33.8912 38.722 33.8912 40.0088C33.8912 40.5472 33.9831 40.9805 34.1669 41.3153C34.3967 41.7355 34.7644 41.9455 35.2699 41.9455C36.038 41.9455 36.4188 41.4006 36.4188 40.3174H35.2436V39.8841H36.8784V42.3526V42.3329Z" fill="#878787"/>
<path d="M41.9731 42.3329H41.4741L40.9424 40.9476H38.894L38.3557 42.3329H37.8633L39.6687 37.665H40.1742L41.9796 42.3329H41.9731ZM40.7717 40.5012L39.9182 38.2953L39.0647 40.5012H40.7782H40.7717Z" fill="#878787"/>
<path d="M46.2665 41.0068C46.2665 41.4335 46.0958 41.7815 45.7544 42.0441C45.4393 42.2804 45.0651 42.3986 44.6252 42.3986C44.1591 42.3986 43.7717 42.3001 43.4566 42.0966C43.1021 41.8734 42.8854 41.5451 42.8066 41.1118L43.2596 41.0002C43.3778 41.637 43.8308 41.9587 44.6186 41.9587C44.9338 41.9587 45.2029 41.8799 45.4261 41.7224C45.6756 41.5517 45.8004 41.3088 45.8004 41.0068C45.8004 40.626 45.5575 40.3634 45.0716 40.2058C44.6186 40.0877 44.1722 39.9629 43.7126 39.8447C43.2268 39.6478 42.9839 39.3064 42.9839 38.8206C42.9839 38.4332 43.1415 38.1312 43.4566 37.908C43.7258 37.7176 44.0672 37.6191 44.4808 37.6191C44.8944 37.6191 45.2095 37.6914 45.4721 37.8358C45.7478 37.9934 45.9645 38.2428 46.1286 38.5908L45.715 38.7877C45.5903 38.5186 45.4261 38.3347 45.2226 38.2231C45.0454 38.1312 44.7959 38.0853 44.4873 38.0853C44.2116 38.0853 43.9818 38.1378 43.798 38.2363C43.5682 38.3676 43.4501 38.558 43.4501 38.8206C43.4501 39.1488 43.693 39.3786 44.1854 39.523C44.6384 39.6543 45.0848 39.7791 45.5378 39.9038C46.0302 40.127 46.2731 40.4947 46.2731 41.0068H46.2665Z" fill="#878787"/>
<path d="M50.3367 38.1244H48.8858V42.3392H48.4197V38.1244H46.9688V37.6714H50.3367V38.1244Z" fill="#878787"/>
<path d="M54.5913 42.3329H54.0923L53.5605 40.9476H51.5122L50.9738 42.3329H50.4814L52.2869 37.665H52.7924L54.5978 42.3329H54.5913ZM53.3833 40.5012L52.5298 38.2953L51.6763 40.5012H53.3898H53.3833Z" fill="#878787"/>
<path d="M18.522 50.3553H18.0624V46.9086L16.8151 50.3553H16.3817L15.1409 46.9086V50.3553H14.6748V45.6875H15.1409L16.605 49.7776L18.0624 45.6875H18.5286V50.3553H18.522Z" fill="#878787"/>
<path d="M20.4981 50.3553H20.0254V45.6875H20.4981V50.3553Z" fill="#878787"/>
<path d="M25.2116 50.3553H24.7521L22.4674 46.5147V50.3553H22.0078V45.6875H22.4674L24.7521 49.5281V45.6875H25.2116V50.3553Z" fill="#878787"/>
<path d="M29.6569 50.3553H26.6895V45.6875H29.6569V46.1471H27.149V47.6899H29.3418V48.1363H27.149V49.8892H29.6569V50.3488V50.3553Z" fill="#878787"/>
<path d="M34.2068 50.3553H33.6685L32.6574 48.6221C32.513 48.3792 32.3291 48.2545 32.0928 48.2545H31.4166V50.3553H30.957V45.6875H32.5524C33.0054 45.6875 33.3665 45.786 33.6291 45.9829C33.9245 46.1996 34.0689 46.5344 34.0689 46.9743C34.0689 47.3091 33.9639 47.5914 33.7538 47.8278C33.5372 48.0772 33.2614 48.2151 32.9134 48.2479C32.9922 48.3136 33.0579 48.4055 33.1235 48.5171L34.2068 50.3553ZM33.6028 46.9743C33.6028 46.4228 33.2548 46.1536 32.5524 46.1536H31.4166V47.8474H32.5721C33.2614 47.8474 33.6028 47.5586 33.6028 46.9808V46.9743Z" fill="#878787"/>
<path d="M39.0581 50.3553H38.5591L38.0273 48.9701H35.979L35.4406 50.3553H34.9482L36.7537 45.6875H37.2592L39.0646 50.3553H39.0581ZM37.8566 48.5237L37.0031 46.3178L36.1497 48.5237H37.8632H37.8566Z" fill="#878787"/>
<path d="M42.7933 50.3553H40.1016V45.6875H40.5611V49.9089H42.7933V50.3553Z" fill="#878787"/>
<path d="M47.1131 49.0292C47.1131 49.456 46.9425 49.8039 46.6011 50.0665C46.286 50.3029 45.9117 50.4211 45.4718 50.4211C45.0057 50.4211 44.6184 50.3226 44.3033 50.1191C43.9487 49.8958 43.7321 49.5676 43.6533 49.1343L44.1063 49.0227C44.2245 49.6595 44.6775 49.9812 45.4653 49.9812C45.7804 49.9812 46.0496 49.9024 46.2728 49.7448C46.5223 49.5741 46.647 49.3312 46.647 49.0292C46.647 48.6485 46.4041 48.3858 45.9183 48.2283C45.4653 48.1101 45.0189 47.9854 44.5593 47.8672C44.0735 47.6702 43.8306 47.3289 43.8306 46.843C43.8306 46.4557 43.9881 46.1537 44.3033 45.9305C44.5724 45.7401 44.9138 45.6416 45.3274 45.6416C45.741 45.6416 46.0562 45.7138 46.3188 45.8583C46.5945 46.0158 46.8112 46.2653 46.9753 46.6133L46.5617 46.8102C46.437 46.541 46.2728 46.3572 46.0693 46.2456C45.892 46.1537 45.6426 46.1077 45.334 46.1077C45.0583 46.1077 44.8285 46.1603 44.6447 46.2587C44.4149 46.39 44.2967 46.5804 44.2967 46.843C44.2967 47.1713 44.5396 47.4011 45.032 47.5455C45.485 47.6768 45.9314 47.8015 46.3844 47.9263C46.8768 48.1495 47.1197 48.5172 47.1197 49.0292H47.1131Z" fill="#878787"/>
</svg>
